<svg xmlns="http://www.w3.org/2000/svg" width="1600" height="1000" viewBox="0 0 1600 1000">
  <defs>
    
    <marker id="arrow-2563eb" markerWidth="14" markerHeight="14" refX="10" refY="5" orient="auto">
      <path d="M0,0 L10,5 L0,10 Z" fill="#2563eb"/>
    </marker>
    <marker id="arrow-f97316" markerWidth="14" markerHeight="14" refX="10" refY="5" orient="auto">
      <path d="M0,0 L10,5 L0,10 Z" fill="#f97316"/>
    </marker>
    <marker id="arrow-0f766e" markerWidth="14" markerHeight="14" refX="10" refY="5" orient="auto">
      <path d="M0,0 L10,5 L0,10 Z" fill="#0f766e"/>
    </marker>
    <marker id="arrow-64748b" markerWidth="14" markerHeight="14" refX="10" refY="5" orient="auto">
      <path d="M0,0 L10,5 L0,10 Z" fill="#64748b"/>
    </marker>
    <marker id="arrow-dc2626" markerWidth="14" markerHeight="14" refX="10" refY="5" orient="auto">
      <path d="M0,0 L10,5 L0,10 Z" fill="#dc2626"/>
    </marker>
    <marker id="arrow-7c3aed" markerWidth="14" markerHeight="14" refX="10" refY="5" orient="auto">
      <path d="M0,0 L10,5 L0,10 Z" fill="#7c3aed"/>
    </marker>
    <filter id="softShadow" x="-20%" y="-20%" width="140%" height="140%">
      <feDropShadow dx="0" dy="14" stdDeviation="18" flood-color="#0f172a" flood-opacity="0.12"/>
    </filter>
    <linearGradient id="blueGrad" x1="0" y1="0" x2="1" y2="1">
      <stop offset="0%" stop-color="#1d4ed8"/>
      <stop offset="100%" stop-color="#38bdf8"/>
    </linearGradient>
    <linearGradient id="greenGrad" x1="0" y1="0" x2="1" y2="1">
      <stop offset="0%" stop-color="#0f766e"/>
      <stop offset="100%" stop-color="#5eead4"/>
    </linearGradient>
    <linearGradient id="orangeGrad" x1="0" y1="0" x2="1" y2="1">
      <stop offset="0%" stop-color="#ea580c"/>
      <stop offset="100%" stop-color="#facc15"/>
    </linearGradient>
  </defs>
  <rect width="1600" height="1000" fill="#f0fdfa"/>
  <text x="80" y="96" font-size="48" fill="#0f172a" font-weight="800">从内容发布到业务知识系统</text>
  <text x="82" y="146" font-size="25" fill="#64748b" font-weight="500">下一阶段增长机会：让所有外部信息入口保持一致、可引用、可更新</text>
  
    <rect x="115" y="215" width="1370" height="620" rx="30" fill="#ffffff" stroke="#cbd5e1" stroke-width="2" filter="url(#softShadow)"/>
    <circle cx="800" cy="520" r="150" fill="url(#greenGrad)" opacity="0.96"/>
    <text x="800" y="498" text-anchor="middle" font-size="35" fill="#ffffff" font-weight="900">业务知识系统</text>
    <text x="800" y="552" text-anchor="middle" font-size="23" fill="#ffffff" font-weight="800">人能信任 · AI 能理解 · 业务能复用</text>
    
      <rect x="100" y="290" width="320" height="90" rx="20" fill="#f0fdf4" stroke="#86efac" stroke-width="2" />
      <text x="260" y="345" text-anchor="middle" font-size="27" fill="#0f172a" font-weight="800">官网 / 产品页</text>
      <path d="M 260 390 C 260 520, 800 335, 800 370" stroke="#0f766e" stroke-width="4" fill="none" opacity="0.55"/>
    
      <rect x="1180" y="290" width="320" height="90" rx="20" fill="#eff6ff" stroke="#93c5fd" stroke-width="2" />
      <text x="1340" y="345" text-anchor="middle" font-size="27" fill="#0f172a" font-weight="800">帮助中心 / FAQ</text>
      <path d="M 1340 390 C 1340 520, 800 335, 800 370" stroke="#0f766e" stroke-width="4" fill="none" opacity="0.55"/>
    
      <rect x="100" y="660" width="320" height="90" rx="20" fill="#f0fdf4" stroke="#86efac" stroke-width="2" />
      <text x="260" y="715" text-anchor="middle" font-size="27" fill="#0f172a" font-weight="800">案例库 / 白皮书</text>
      <path d="M 260 650 C 260 520, 800 705, 800 670" stroke="#0f766e" stroke-width="4" fill="none" opacity="0.55"/>
    
      <rect x="1180" y="660" width="320" height="90" rx="20" fill="#eff6ff" stroke="#93c5fd" stroke-width="2" />
      <text x="1340" y="715" text-anchor="middle" font-size="27" fill="#0f172a" font-weight="800">销售 / 客服话术</text>
      <path d="M 1340 650 C 1340 520, 800 705, 800 670" stroke="#0f766e" stroke-width="4" fill="none" opacity="0.55"/>
    
      <rect x="640" y="240" width="320" height="90" rx="20" fill="#f0fdf4" stroke="#86efac" stroke-width="2" />
      <text x="800" y="295" text-anchor="middle" font-size="27" fill="#0f172a" font-weight="800">公众号 / 内容库</text>
      <path d="M 800 340 C 800 520, 800 285, 800 370" stroke="#0f766e" stroke-width="4" fill="none" opacity="0.55"/>
    
      <rect x="640" y="715" width="320" height="90" rx="20" fill="#eff6ff" stroke="#93c5fd" stroke-width="2" />
      <text x="800" y="770" text-anchor="middle" font-size="27" fill="#0f172a" font-weight="800">产品文档 / 更新记录</text>
      <path d="M 800 705 C 800 520, 800 760, 800 670" stroke="#0f766e" stroke-width="4" fill="none" opacity="0.55"/>
    
    <rect x="245" y="875" width="1110" height="58" rx="16" fill="#0f172a" stroke="#0f172a" stroke-width="2" />
    <text x="800" y="913" text-anchor="middle" font-size="26" fill="#ffffff" font-weight="800">产品不只是功能，也包括向外部世界提供的信息接口</text>
  
  </svg>